<?xml version="1.0" standalone="no"?>
<!DOCTYPE svg PUBLIC "-//W3C//DTD SVG 20010904//EN"
 "http://www.w3.org/TR/2001/REC-SVG-20010904/DTD/svg10.dtd">
<svg version="1.0" xmlns="http://www.w3.org/2000/svg"
 width="256.000000pt" height="256.000000pt" viewBox="0 0 256.000000 256.000000"
 preserveAspectRatio="xMidYMid meet">

<g transform="translate(0.000000,256.000000) scale(0.100000,-0.100000)"
fill="#000000" stroke="none">
<path d="M1758 2188 c7 -7 12 -29 12 -49 0 -32 3 -37 29 -42 63 -13 138 -109
111 -142 -19 -23 -36 -18 -61 18 -27 37 -49 56 -66 57 -10 0 -13 -26 -13 -100
0 -85 2 -100 16 -100 29 0 90 -41 109 -72 23 -39 24 -123 2 -165 -20 -39 -59
-70 -97 -78 -24 -5 -29 -12 -32 -42 -4 -46 -33 -67 -54 -39 -8 11 -14 34 -14
50 0 27 -7 35 -46 55 -73 39 -121 129 -77 145 12 5 29 -8 61 -44 24 -27 48
-50 53 -50 5 0 9 44 9 98 l0 98 -35 17 c-59 28 -95 108 -81 182 8 42 56 100
90 109 20 5 25 13 28 51 l3 45 -172 0 -173 0 -50 -67 c-59 -81 -88 -152 -103
-254 -38 -264 151 -527 420 -584 86 -18 130 -18 218 0 246 52 426 273 425 523
0 122 -51 255 -132 347 l-40 45 -176 0 c-137 0 -173 -3 -164 -12z"/>
<path d="M1670 2008 c-32 -35 -21 -128 16 -142 11 -4 14 12 14 79 0 47 -2 85
-5 85 -2 0 -13 -10 -25 -22z"/>
<path d="M1770 1675 c0 -52 4 -95 9 -95 52 0 90 87 61 141 -6 10 -24 26 -40
34 l-30 16 0 -96z"/>
<path d="M834 1341 c-23 -11 -110 -67 -194 -125 -83 -58 -153 -106 -156 -106
-3 0 -12 16 -20 35 -8 19 -21 35 -30 35 -21 0 -419 -194 -428 -209 -7 -10 319
-702 347 -738 5 -7 17 -13 26 -13 9 0 108 45 220 100 198 98 203 101 199 128
-3 15 -8 34 -11 42 -5 11 9 24 48 47 l56 32 407 -79 c224 -44 416 -80 427 -80
43 1 112 48 445 302 295 225 348 270 368 308 30 57 25 116 -12 165 -36 47 -74
65 -141 65 -51 0 -74 -9 -286 -117 l-231 -116 -25 32 c-14 17 -37 38 -53 46
-16 8 -207 71 -425 140 -423 133 -456 140 -531 106z m518 -161 c277 -87 419
-137 435 -152 69 -64 19 -198 -74 -198 -21 0 -173 31 -338 69 -213 49 -304 66
-312 59 -14 -12 -17 -34 -5 -41 16 -11 627 -147 656 -147 71 1 148 72 161 151
l7 40 240 120 c132 65 251 119 264 119 83 0 136 -81 102 -156 -13 -28 -691
-549 -738 -567 -21 -8 -110 6 -426 67 -219 43 -413 78 -430 78 -17 0 -53 -14
-81 -31 -28 -17 -53 -31 -57 -31 -11 0 -247 493 -239 500 5 4 78 56 163 115
146 102 202 134 242 135 10 0 203 -58 430 -130z"/>
</g>
</svg>
