<?xml version="1.0" standalone="no"?>
<!DOCTYPE svg PUBLIC "-//W3C//DTD SVG 20010904//EN"
 "http://www.w3.org/TR/2001/REC-SVG-20010904/DTD/svg10.dtd">
<svg version="1.0" xmlns="http://www.w3.org/2000/svg"
 width="512.000000pt" height="512.000000pt" viewBox="0 0 512.000000 512.000000"
 preserveAspectRatio="xMidYMid meet">

<g transform="translate(0.000000,512.000000) scale(0.100000,-0.100000)"
fill="#000000" stroke="none">
<path d="M452 5100 c-107 -28 -187 -75 -273 -160 -56 -56 -86 -94 -113 -150
-68 -140 -66 -89 -66 -1367 l0 -1153 200 0 200 0 2 1159 3 1159 30 43 c17 23
50 53 74 66 l44 23 1207 0 1207 0 44 -23 c24 -13 58 -43 74 -66 l30 -43 3
-714 2 -714 200 0 200 0 0 708 c0 787 0 787 -66 921 -27 54 -58 96 -113 151
-87 87 -163 131 -277 160 -75 19 -114 20 -1308 19 -1179 0 -1234 -1 -1304 -19z"/>
<path d="M760 3360 l0 -200 1000 0 1000 0 0 200 0 200 -1000 0 -1000 0 0 -200z"/>
<path d="M3920 3160 l0 -400 -400 0 -400 0 0 -245 0 -245 200 0 200 0 0 45 0
45 200 0 200 0 0 -45 0 -45 200 0 200 0 0 445 0 445 200 0 200 0 0 -445 0
-445 200 0 200 0 0 645 0 645 -600 0 -600 0 0 -400z"/>
<path d="M760 2560 l0 -200 1000 0 1000 0 0 200 0 200 -1000 0 -1000 0 0 -200z"/>
</g>
</svg>
